<svg xmlns="http://www.w3.org/2000/svg" viewBox="0 0 64 64">
  <!-- White circular background, fills almost all favicon area -->
  <circle cx="32" cy="32" r="30" fill="#ffffff" />

  <!-- Launching rocket, pointing up-right, kept thick so it reads at 16x16 -->
  <!-- Rocket body -->
  <path
    d="M26 40
       L35 19
       Q37 15, 42 17
       Q40 22, 38 26
       L29 45
       Z"
    fill="#1565c0"/>

  <!-- Rocket window -->
  <circle cx="34" cy="24" r="2.2" fill="#ffffff" />

  <!-- Rocket nose highlight -->
  <path
    d="M34 20
       Q35 18.5, 37 18.8
       Q35.6 20, 34 20Z"
    fill="#bbdefb"/>

  <!-- Fins -->
  <path
    d="M26 40
       L21 43
       L23 35
       Z"
    fill="#1e88e5"/>

  <!-- Stronger flame (firing gas) -->
  <path
    d="M24 45
       Q21 50, 24 56
       Q27 50, 24 45Z"
    fill="#ffb300"/>

  <!-- Inner hot flame core -->
  <path
    d="M24 46
       Q22.5 50, 24 54
       Q25.5 50, 24 46Z"
    fill="#ff7043"/>

  <!-- Curved swoosh around rocket to echo logo's rounded circle -->
  <path
    d="M10 40
       Q22 18, 44 16
       Q54 18, 58 24"
    fill="none"
    stroke="#1e88e5"
    stroke-width="3"
    stroke-linecap="round"/>
</svg>

