<svg xmlns="http://www.w3.org/2000/svg" viewBox="8 12 48 54">
  <!-- Rocket angle a bit more tilted; body drawn thicker -->
  <g transform="rotate(18 32 39)">
  <path
    d="M20 42
       L42 16
       Q44 12, 48 14
       Q46 20, 44 26
       L24 50
       Z"
    fill="#1565c0"/>

  <!-- Rocket window -->
  <circle cx="34" cy="24" r="2.8" fill="#ffffff" />

  <!-- Rocket nose highlight -->
  <path
    d="M34 20
       Q35.5 18.5, 38 18.8
       Q36 20, 34 20Z"
    fill="#bbdefb"/>

  <!-- Fins -->
  <path
    d="M20 44
       L12 48
       L16 36
       Z"
    fill="#1e88e5"/>
  <path
    d="M44 44
       L52 48
       L48 36
       Z"
    fill="#1e88e5"/>

  <!-- Flame (firing gas) -->
  <path
    d="M31 50
       Q26 58, 31 63
       Q36 58, 31 50Z"
    fill="#ffb300"/>

  <!-- Inner hot flame core -->
  <path
    d="M31 51
       Q28 56, 31 60
       Q34 56, 31 51Z"
    fill="#ff7043"/>

  <!-- Curved circle wrapping the middle part of the rocket -->
  <path
    d="M12 38
       Q18 26, 32 24
       Q46 26, 52 36
       Q48 41, 42 38"
    fill="none"
    stroke="#1e88e5"
    stroke-width="3"
    stroke-linecap="round"/>
  </g>
</svg>

