<svg xmlns="http://www.w3.org/2000/svg" xmlns:xlink="http://www.w3.org/1999/xlink" viewBox="150 0 660 600"><defs><style>.cls-1,.cls-2,.cls-20,.cls-22{fill:none;}.cls-1{stroke-width:6px;stroke:url(#linear-gradient);}.cls-2{stroke-miterlimit:10;stroke-width:11px;stroke:url(#linear-gradient-2);}.cls-10,.cls-11,.cls-12,.cls-13,.cls-14,.cls-15,.cls-16,.cls-17,.cls-18,.cls-19,.cls-21,.cls-3,.cls-4,.cls-5,.cls-6,.cls-7,.cls-8,.cls-9{stroke:#fff;}.cls-10,.cls-11,.cls-12,.cls-13,.cls-14,.cls-15,.cls-16,.cls-17,.cls-18,.cls-19,.cls-20,.cls-21,.cls-22,.cls-3,.cls-4,.cls-5,.cls-6,.cls-7,.cls-8,.cls-9{stroke-width:4px;}.cls-3{fill:url(#linear-gradient-3);}.cls-4{fill:url(#linear-gradient-4);}.cls-5{fill:url(#linear-gradient-5);}.cls-6{fill:url(#linear-gradient-6);}.cls-7{fill:url(#linear-gradient-7);}.cls-8{fill:url(#linear-gradient-8);}.cls-9{fill:url(#linear-gradient-9);}.cls-10{fill:url(#linear-gradient-10);}.cls-11{fill:url(#linear-gradient-11);}.cls-12{fill:url(#linear-gradient-12);}.cls-13{fill:url(#linear-gradient-13);}.cls-14{fill:url(#linear-gradient-14);}.cls-15{fill:url(#linear-gradient-15);}.cls-16{fill:url(#linear-gradient-16);}.cls-17{fill:url(#linear-gradient-17);}.cls-18{fill:url(#linear-gradient-18);}.cls-19{fill:url(#linear-gradient-19);}.cls-20{stroke:url(#linear-gradient-20);}.cls-21{fill-rule:evenodd;fill:url(#linear-gradient-21);}.cls-22{stroke:url(#linear-gradient-22);}</style><linearGradient id="linear-gradient" x1="768.22" y1="190.14" x2="211.21" y2="438.13" gradientUnits="userSpaceOnUse"><stop offset="0" stop-color="#e93400"/><stop offset="0.03" stop-color="#ea450b"/><stop offset="0.09" stop-color="#ee7327"/><stop offset="0.17" stop-color="#f4bb55"/><stop offset="0.23" stop-color="#faff7f"/><stop offset="0.59" stop-color="#1e90ff"/><stop offset="0.85" stop-color="#2ed573"/></linearGradient><linearGradient id="linear-gradient-2" x1="806.1" y1="300.47" x2="155.85" y2="300.47" gradientUnits="userSpaceOnUse"><stop offset="0" stop-color="#e93400"/><stop offset="0.04" stop-color="#db3a11"/><stop offset="0.11" stop-color="#b74b3f"/><stop offset="0.21" stop-color="#7c6588"/><stop offset="0.33" stop-color="#2d89ec"/><stop offset="0.36" stop-color="#1e90ff"/><stop offset="0.71" stop-color="#2ed573"/><stop offset="0.96" stop-color="#e2e900"/></linearGradient><linearGradient id="linear-gradient-3" x1="200.23" y1="550.92" x2="200.23" y2="551.92" gradientTransform="matrix(24, 0, 0, -24, -4432.68, 13260)" gradientUnits="userSpaceOnUse"><stop offset="0" stop-color="#2ed573"/><stop offset="1" stop-color="#1e90ff"/></linearGradient><linearGradient id="linear-gradient-4" x1="200.23" y1="550.92" x2="200.23" y2="551.92" gradientTransform="matrix(24, 0, 0, -24, -4637.68, 13562)" xlink:href="#linear-gradient-3"/><linearGradient id="linear-gradient-5" x1="200.23" y1="550.92" x2="200.23" y2="551.92" gradientTransform="matrix(24, 0, 0, -24, -4479.68, 13640)" xlink:href="#linear-gradient-3"/><linearGradient id="linear-gradient-6" x1="200.23" y1="550.92" x2="200.23" y2="551.92" gradientTransform="matrix(24, 0, 0, -24, -4397.68, 13560)" xlink:href="#linear-gradient-3"/><linearGradient id="linear-gradient-7" x1="200.23" y1="550.92" x2="200.23" y2="551.92" gradientTransform="matrix(24, 0, 0, -24, -4361.68, 13652)" xlink:href="#linear-gradient-3"/><linearGradient id="linear-gradient-8" x1="200.23" y1="550.92" x2="200.23" y2="551.92" gradientTransform="matrix(24, 0, 0, -24, -4324.68, 13652)" xlink:href="#linear-gradient-3"/><linearGradient id="linear-gradient-9" x1="200.23" y1="550.92" x2="200.23" y2="551.92" gradientTransform="matrix(24, 0, 0, -24, -4324.68, 13566)" xlink:href="#linear-gradient-3"/><linearGradient id="linear-gradient-10" x1="200.23" y1="550.92" x2="200.23" y2="551.92" gradientTransform="matrix(24, 0, 0, -24, -4192.68, 13542)" xlink:href="#linear-gradient-3"/><linearGradient id="linear-gradient-11" x1="200.73" y1="550" x2="200.73" y2="551" gradientTransform="matrix(24, 0, 0, -24, -4262.68, 13600)" xlink:href="#linear-gradient-3"/><linearGradient id="linear-gradient-12" x1="200.23" y1="550.92" x2="200.23" y2="551.92" gradientTransform="matrix(24, 0, 0, -24, -4006.68, 13560)" xlink:href="#linear-gradient-3"/><linearGradient id="linear-gradient-13" x1="200.23" y1="550.92" x2="200.23" y2="551.92" gradientTransform="matrix(24, 0, 0, -24, -4126.68, 13796)" xlink:href="#linear-gradient-3"/><linearGradient id="linear-gradient-14" x1="200.23" y1="550.92" x2="200.23" y2="551.92" gradientTransform="matrix(24, 0, 0, -24, -4210.68, 13820)" xlink:href="#linear-gradient-3"/><linearGradient id="linear-gradient-15" x1="199.81" y1="550.92" x2="199.81" y2="551.92" gradientTransform="matrix(24, 0, 0, -24, -4325.68, 13738)" xlink:href="#linear-gradient-3"/><linearGradient id="linear-gradient-16" x1="200.23" y1="550.92" x2="200.23" y2="551.92" gradientTransform="matrix(24, 0, 0, -24, -4444.68, 13708)" xlink:href="#linear-gradient-3"/><linearGradient id="linear-gradient-17" x1="200.23" y1="550.92" x2="200.23" y2="551.92" gradientTransform="matrix(24, 0, 0, -24, -4324.68, 13248)" xlink:href="#linear-gradient-3"/><linearGradient id="linear-gradient-18" x1="200.23" y1="550.92" x2="200.23" y2="551.92" gradientTransform="matrix(24, 0, 0, -24, -4126.68, 13312)" xlink:href="#linear-gradient-3"/><linearGradient id="linear-gradient-19" x1="200.23" y1="550.92" x2="200.23" y2="551.92" gradientTransform="matrix(24, 0, 0, -24, -4042.68, 13416)" xlink:href="#linear-gradient-3"/><linearGradient id="linear-gradient-20" x1="201.21" y1="550.79" x2="201.21" y2="549.69" gradientTransform="matrix(68, 0, 0, -59, -13379.94, 32727)" xlink:href="#linear-gradient-3"/><linearGradient id="linear-gradient-21" x1="200.93" y1="550.05" x2="200.93" y2="550.95" gradientTransform="matrix(50.61, 0, 0, -44, -9865.68, 24485)" gradientUnits="userSpaceOnUse"><stop offset="0" stop-color="#2ed573"/><stop offset="0.03" stop-color="#2dd378"/><stop offset="1" stop-color="#1e90ff"/></linearGradient><linearGradient id="linear-gradient-22" x1="201.21" y1="550.72" x2="201.21" y2="549.75" gradientTransform="matrix(68, 0, 0, -59, -13379.94, 32727)" xlink:href="#linear-gradient-3"/></defs><title>Apollo Technology</title><g id="CHAM"><path class="cls-1" d="M480.78,16.32l-25,144.29m223,49.27L765.47,185M679.16,80.37l-.38,129.51m-223-49.27L407.78,326M384.3,111.44l71.48,49.17m0,0,223,49.27M800.27,329.3,678.78,209.88m-223-49.27,26.06,173.83m197.32,231,21.4-86.54m-21.4-109.39-.38-159.64m-86,380.74L523,495.23M329.27,217.88,374,30m-123,232.7L164.1,329.3m190.68-66.6,53,63.3M164.1,329.3H412m202.37-20.09,64.42-99.33"/><path id="Combined-Shape" class="cls-2" d="M384.3,111.44,481.84,10.67l197.32,69.7L765.47,185l34.8,144.33L679.16,565.45l-86.38,25.17L467.78,504l87-117,107.76,22.64L671,474l-58.21,48.18-69-32.17L573,454.56l27.77-1.2L572.06,486l40.72,12.48,25.28-55.72L575.51,423.6,523,495.23,606.78,543l93.78-64.11-21.4-109.39-27.89,21.1-58.49-15.94,26-13.77-4.42-51.7L481.84,334.44v85.71l-35.49,54.92H361.28l15.6-23.1,69.47-31.82L412,329.3h0ZM164.1,329.3,374,30l38,299.3-83.45,78Z"/><circle id="Oval" class="cls-3" cx="372.78" cy="26" r="12"/><circle id="Oval-Copy-4" class="cls-4" cx="167.78" cy="328" r="12"/><circle id="Oval-Copy-5" class="cls-5" cx="325.78" cy="406" r="12"/><circle id="Oval-Copy-6" class="cls-6" cx="407.78" cy="326" r="12"/><circle id="Oval-Copy-7" class="cls-7" cx="443.78" cy="418" r="12"/><circle id="Oval-Copy-8" class="cls-8" cx="480.78" cy="418" r="12"/><circle id="Oval-Copy-9" class="cls-9" cx="480.78" cy="332" r="12"/><circle id="Oval-Copy-10" class="cls-10" cx="612.78" cy="308" r="12"/><circle id="Oval-Copy-16" class="cls-11" cx="554.78" cy="387.96" r="12"/><circle id="Oval-Copy-11" class="cls-12" cx="798.78" cy="326" r="12"/><circle id="Oval-Copy-12" class="cls-13" cx="678.78" cy="562" r="12"/><circle id="Oval-Copy-13" class="cls-14" cx="594.78" cy="586" r="12"/><circle id="Oval-Copy-14" class="cls-15" cx="469.78" cy="504" r="12"/><circle id="Oval-Copy-15" class="cls-16" cx="360.78" cy="474" r="12"/><circle id="Oval-Copy" class="cls-17" cx="480.78" cy="14" r="12"/><circle id="Oval-Copy-2" class="cls-18" cx="678.78" cy="78" r="12"/><circle id="Oval-Copy-3" class="cls-19" cx="762.78" cy="182" r="12"/><polygon id="Path-3" class="cls-20" points="250.91 262.7 277.01 217.88 329.27 217.88 354.78 262.7 329.27 308 277.01 308 250.91 262.7"/><path id="Path-3-2" data-name="Path-3" class="cls-21" d="M280.21,262.84l11.38-19.57h22.77l11.11,19.57-11.11,19.77H291.59Z"/><polygon id="Path-3-3" data-name="Path-3" class="cls-22" points="273.99 262.92 288.43 238.13 317.33 238.13 331.43 262.92 317.33 287.97 288.43 287.97 273.99 262.92"/></g></svg>
